<?xml version="1.0" encoding="UTF-8" standalone="no"?>
<!-- Created with Inkscape (http://www.inkscape.org/) -->

<svg
   xmlns:dc="http://purl.org/dc/elements/1.1/"
   xmlns:cc="http://creativecommons.org/ns#"
   xmlns:rdf="http://www.w3.org/1999/02/22-rdf-syntax-ns#"
   xmlns:svg="http://www.w3.org/2000/svg"
   xmlns="http://www.w3.org/2000/svg"
   xmlns:sodipodi="http://sodipodi.sourceforge.net/DTD/sodipodi-0.dtd"
   xmlns:inkscape="http://www.inkscape.org/namespaces/inkscape"
   width="960"
   height="250"
   viewBox="0 0 960.00002 250"
   id="svg4172"
   version="1.1"
   inkscape:version="0.91 r13725"
   sodipodi:docname="header.svg">
  <defs
     id="defs4174" />
  <sodipodi:namedview
     id="base"
     pagecolor="#ffffff"
     bordercolor="#666666"
     borderopacity="1.0"
     inkscape:pageopacity="0.0"
     inkscape:pageshadow="2"
     inkscape:zoom="0.7"
     inkscape:cx="351.65445"
     inkscape:cy="148.21843"
     inkscape:document-units="px"
     inkscape:current-layer="layer1"
     showgrid="false"
     inkscape:window-width="1366"
     inkscape:window-height="705"
     inkscape:window-x="-8"
     inkscape:window-y="-8"
     inkscape:window-maximized="1"
     units="px"
     width="960px" />
  <metadata
     id="metadata4177">
    <rdf:RDF>
      <cc:Work
         rdf:about="">
        <dc:format>image/svg+xml</dc:format>
        <dc:type
           rdf:resource="http://purl.org/dc/dcmitype/StillImage" />
        <dc:title></dc:title>
      </cc:Work>
    </rdf:RDF>
  </metadata>
  <g
     inkscape:label="Ebene 1"
     inkscape:groupmode="layer"
     id="layer1"
     transform="translate(0,-802.36216)">
    <path
       style="fill:#000000"
       d="m 886.76633,1040.2942 c -3.19994,-2.2455 -25.95239,-9.5567 -31.74838,-10.202 -7.99332,-0.8899 -14.04993,-3.8392 -18.85203,-9.1803 -5.90295,-6.5655 -8.35948,-13.3626 -8.41534,-23.28459 -0.0403,-7.16776 0.26818,-8.62455 3.0031,-14.17996 4.17426,-8.47911 10.18938,-13.96454 24.15928,-22.03177 18.3618,-10.60344 25.65845,-19.63615 26.0479,-32.24532 0.11348,-3.67429 0.61463,-6.04457 1.32812,-6.28154 3.66208,-1.21634 21.35257,35.19892 23.25161,47.86263 0.81634,5.44371 0.0181,5.54917 -5.54683,0.73278 -2.32769,-2.01459 -5.83381,-4.21386 -7.7914,-4.88726 -7.34391,-2.52627 -23.71317,-0.87622 -25.0171,2.52178 -0.58856,1.53376 0.88327,2.68595 5.2107,4.07906 1.96171,0.63153 5.18514,3.00057 7.5,5.51209 2.23281,2.42251 5.32076,5.0377 6.86211,5.81152 3.88206,1.94898 5.12932,5.87058 3.03033,9.52788 -0.90416,1.5754 -1.61403,4.76565 -1.61403,7.2536 0,10.6188 -4.55618,18.3145 -15.07016,25.4544 -3.87257,2.6298 -5.89531,3.4464 -7.53376,3.0415 -1.23191,-0.3044 -2.02692,-0.3135 -1.76669,-0.02 0.81698,0.9211 19.13342,6.9857 23.1456,7.6636 3.18255,0.5377 3.74829,0.952 3.35473,2.457 -0.55373,2.1174 -1.01047,2.1684 -3.53776,0.395 z m -20.4216,-15.0827 c 5.92773,-1.9794 6.44026,-2.6147 3.60721,-4.471 -1.93171,-1.2657 -2.72406,-1.3461 -4.19743,-0.426 -1.42537,0.8902 -2.36769,0.883 -4.37882,-0.033 -2.06919,-0.9427 -2.7314,-0.9327 -3.43916,0.052 -0.6491,0.9034 -0.74664,0.8126 -0.37592,-0.35 0.58365,-1.8302 -3.53409,-4.968 -5.18257,-3.9492 -0.64703,0.3999 -0.79527,0.2309 -0.38286,-0.4364 0.3825,-0.6189 -0.004,-1.3487 -0.89492,-1.6907 -0.86236,-0.3309 -2.6382,-1.5936 -3.94631,-2.8059 -1.30811,-1.2122 -3.1414,-2.2041 -4.074,-2.2041 -1.16899,0 -1.87583,-0.9463 -2.27586,-3.0469 -0.6494,-3.41 -3.87177,-7.89858 -4.91878,-6.85155 -0.37383,0.37382 -0.67969,3.52505 -0.67969,7.00265 0,5.5102 0.34416,6.7742 2.6773,9.8331 3.20699,4.2046 5.21081,5.1612 6.39159,3.0513 1.38929,-2.4826 2.72033,-1.794 1.53997,0.7966 -1.57875,3.465 -0.008,4.1403 2.59589,1.1156 2.52862,-2.9378 2.77132,-2.79 1.17421,0.7153 -1.43997,3.1604 -0.36305,4.0648 2.1805,1.8313 2.00852,-1.7638 2.02963,-1.7636 1.38026,0.01 -0.39958,1.0906 -0.18511,2.101 0.54415,2.5637 1.94537,1.2344 7.82807,0.9064 12.65524,-0.7055 z m 13.29502,-8.3783 c 1.60029,-1.8227 2.95961,-3.8266 3.02069,-4.4532 0.23176,-2.377 -0.28702,-3.9876 -1.61618,-5.0175 -1.09027,-0.8447 -1.94987,-0.4913 -4.14595,1.7048 -2.34391,2.3439 -3.38072,2.7246 -6.73339,2.472 -3.12614,-0.2355 -4.0311,0.038 -4.28605,1.2932 -0.36713,1.8084 6.56896,7.3145 9.21404,7.3145 0.90047,0 2.94655,-1.4912 4.54684,-3.3138 z m -14.90288,0.6481 c 0,-0.374 -1.26563,-1.4276 -2.8125,-2.3414 -2.38639,-1.4097 -2.8125,-1.4483 -2.8125,-0.2553 0,1.6249 3.67569,4.4815 4.84028,3.7617 0.4316,-0.2667 0.78472,-0.7909 0.78472,-1.165 z m -6.5625,-2.9593 c 0,-0.5156 -0.45201,-0.9375 -1.00447,-0.9375 -1.49971,0 -3.69229,-2.4799 -2.93526,-3.3199 0.36216,-0.4019 0.12815,-0.4254 -0.52002,-0.052 -0.68834,0.3963 -1.41241,0.069 -1.74092,-0.7872 -0.30934,-0.8061 -0.96931,-1.4657 -1.4666,-1.4657 -0.49729,0 -1.51905,-0.6148 -2.27058,-1.3664 -0.75153,-0.7515 -1.98459,-1.1292 -2.74015,-0.8392 -1.78601,0.6853 -0.83273,2.2056 1.38303,2.2056 0.94565,0 1.96219,0.6329 2.259,1.4063 0.29679,0.7734 1.18567,1.4062 1.9753,1.4062 0.78962,0 1.43567,0.3242 1.43567,0.7204 0,0.3962 1.16015,1.4397 2.57812,2.3188 3.07221,1.9048 3.04688,1.8989 3.04688,0.7108 z m 16.47463,-6.3425 c 2.58226,-1.7681 1.89087,-5.845 -0.99125,-5.845 -0.92822,0 -4.23338,4.6876 -4.23338,6.004 0,0.7902 4.01702,0.6679 5.22463,-0.159 z m 10.71287,-6.402 c 0,-3.98645 -0.0996,-4.14316 -1.98954,-3.13168 -1.09424,0.58563 -3.25505,0.81166 -4.80181,0.50232 -2.55569,-0.51114 -2.70055,-0.41282 -1.58776,1.07756 2.05035,2.7461 6.89719,6.664 7.66045,6.1923 0.39526,-0.2443 0.71866,-2.3325 0.71866,-4.6405 z m -15.84319,0.088 c 0.64363,-1.2454 0.32528,-1.088 -0.94805,0.4687 -1.05438,1.2891 -1.91999,2.7656 -1.92356,3.2813 -0.007,1.0032 1.29125,-0.6921 2.87161,-3.75 z m -19.96931,-0.6563 c 1.99654,-1.99652 1.21496,-3.3137 -3.19677,-5.38746 -5.30519,-2.49374 -6.14492,-1.97469 -2.31954,1.43375 1.59022,1.41689 2.89131,3.13921 2.89131,3.82741 0,1.5543 1.14209,1.6092 2.625,0.1263 z m 14.66905,-4.39343 c -0.65179,-0.65178 -3.16824,2.95564 -3.19556,4.58093 -0.013,0.7735 0.79933,0.1578 1.80517,-1.3681 1.00585,-1.52593 1.63152,-2.9717 1.39039,-3.21283 z m -27.67222,-4.3253 c 0.47752,-1.03125 1.12046,-3.41337 1.42873,-5.2936 0.40274,-2.4564 1.76114,-4.52533 4.82623,-7.35062 2.34615,-2.16261 4.01587,-4.18187 3.71049,-4.48725 -0.30538,-0.30537 -2.76322,1.73677 -5.46188,4.53812 -5.383,5.58782 -8.24369,12.00107 -8.12648,18.21835 l 0.0707,3.75003 1.34198,-3.75003 c 0.7381,-2.0625 1.7327,-4.59375 2.21024,-5.625 z m 22.04722,0.5753 c -0.65179,-0.65178 -3.16824,2.95564 -3.19556,4.58095 -0.013,0.77344 0.79933,0.15777 1.80517,-1.36814 1.00585,-1.52591 1.63152,-2.97168 1.39039,-3.21281 z m 25.83095,0.42323 c 0,-2.25184 -1.76878,-6.15478 -2.7893,-6.15478 -0.52838,0 -0.9607,0.75937 -0.9607,1.6875 0,0.92813 -0.52382,2.21132 -1.16404,2.85154 -0.92706,0.92705 -0.87934,1.34404 0.23438,2.04814 2.10081,1.32818 4.67966,1.08989 4.67966,-0.4324 z m -6.58335,-4.19071 c -0.0152,-1.08855 -0.51956,-0.85775 -1.85415,0.84843 -2.39298,3.05924 -2.39298,4.50937 0,2.34375 1.03125,-0.93327 1.86561,-2.36975 1.85415,-3.19218 z m -25.47137,0.22583 c 0.30009,-2.10659 -2.61169,-3.8305 -4.49939,-2.66383 -1.08666,0.67158 -1.26616,3.59115 -0.28135,4.57598 1.35219,1.35218 4.49476,0.0952 4.78074,-1.91215 z m 20.88146,-7.30155 -4.29549,-2.88456 -0.54033,2.35748 c -0.29718,1.29661 -1.0366,3.2811 -1.64317,4.40996 -1.13401,2.11053 -0.10259,3.75819 1.66771,2.66409 0.48975,-0.30269 1.3659,0.33804 1.947,1.42383 1.02526,1.91572 1.14688,1.86966 4.10816,-1.55604 l 3.05162,-3.53021 -4.2955,-2.88455 z m 15.20497,6.36854 c -0.26528,-0.69129 -0.90419,-1.25689 -1.41982,-1.25689 -0.51562,0 -0.68142,0.66731 -0.36845,1.48293 0.31299,0.8156 0.57552,1.97576 0.58341,2.57812 0.008,0.67196 0.33759,0.58461 0.85076,-0.22604 0.46003,-0.72667 0.61937,-1.88683 0.3541,-2.57812 z m -44.00518,1.08686 c -0.29681,-0.77344 -0.70544,-1.40625 -0.90809,-1.40625 -0.20264,0 -0.36844,0.63281 -0.36844,1.40625 0,0.77344 0.40864,1.40625 0.90808,1.40625 0.49943,0 0.66524,-0.63281 0.36845,-1.40625 z m 13.72347,-3.6497 c 0,-0.20265 -0.65472,-0.61968 -1.45495,-0.92676 -0.8343,-0.32015 -1.21061,-0.16299 -0.88216,0.36844 0.55055,0.89083 2.33711,1.31761 2.33711,0.55832 z m -11.27981,-4.73261 c -0.0164,-0.54598 -0.64922,-0.17377 -1.40625,0.82712 -0.75705,1.00089 -1.36303,2.26652 -1.34663,2.8125 0.0164,0.54598 0.64922,0.17377 1.40625,-0.82712 0.75704,-1.00089 1.36302,-2.26652 1.34663,-2.8125 z m 31.44126,-0.51819 c -0.93613,-1.03441 -2.37495,-1.86558 -3.19738,-1.84704 -1.03318,0.0233 -0.63742,0.73483 1.28054,2.30227 3.19853,2.61396 4.42979,2.32155 1.91684,-0.45523 z m -12.94927,-1.62853 c -0.2377,-0.91216 -0.44781,-0.39285 -0.46692,1.15403 -0.0191,1.54687 0.17537,2.29318 0.43218,1.65847 0.2568,-0.63472 0.27243,-1.90035 0.0348,-2.8125 z m -3.46218,-1.21292 c 0,-0.52839 -1.05102,-1.36031 -2.33561,-1.84871 -2.49058,-0.94691 -5.16439,-0.38255 -5.16439,1.09004 0,0.49089 0.38291,0.65587 0.85092,0.36663 0.468,-0.28924 1.83909,-0.12994 3.04687,0.35399 2.92941,1.17379 3.60221,1.1809 3.60221,0.0381 z m 11.55469,-0.37465 c 0.0902,-0.45084 -1.52344,-1.38183 -3.58594,-2.06885 l -3.75,-1.24915 2.8125,2.32171 c 2.77205,2.28833 4.20182,2.60323 4.52344,0.99629 z m -7.12496,-8.03965 c 0.16613,-2.20542 0.39358,-2.15163 -3.44269,-0.81429 -2.22165,0.77447 -2.70213,1.27657 -1.78051,1.86064 2.33986,1.4829 5.07393,0.9352 5.2232,-1.04635 z M 683.79937,1040.079 c -1.89364,-0.7082 -2.80001,-2.204 -2.7047,-4.4635 0.0652,-1.5447 0.21134,-1.4621 0.8297,0.4687 1.43175,4.4707 0.95383,-0.7577 -0.99002,-10.8305 -1.06013,-5.4934 -2.4207,-10.7778 -3.02349,-11.743 -2.49216,-3.9906 6.50939,-6.4621 9.10543,-2.5 3.50265,5.3457 5.77293,25.527 3.1112,27.6565 -1.68771,1.3502 -4.69738,2.0217 -6.32812,1.4118 z m -0.0196,-15.0975 c -1.14054,-6.5033 -2.45836,-12.6774 -2.92847,-13.7201 -0.73851,-1.6381 -0.78999,-1.5771 -0.37846,0.4478 0.26196,1.2891 1.43402,8.2108 2.60456,15.3816 1.17054,7.1707 2.27403,12.2901 2.45217,11.3764 0.17815,-0.9138 -0.60925,-6.9823 -1.7498,-13.4857 z m 34.7071,14.5806 c -2.09486,-1.0564 -2.37297,-1.8421 -2.61896,-7.3984 -0.29634,-6.6937 1.83103,-17.7061 4.08501,-21.1461 1.6213,-2.4744 5.5451,-2.7851 8.35431,-0.6616 1.52282,1.1512 1.657,1.7114 0.75564,3.1547 -0.60278,0.9652 -1.96336,6.2496 -3.02348,11.743 -1.94385,10.0728 -2.42177,15.3012 -0.99002,10.8305 l 0.7506,-2.3437 0.0935,2.6013 c 0.071,1.9744 -0.48609,2.8217 -2.31133,3.5156 -2.88152,1.0956 -2.26657,1.1312 -5.09522,-0.2953 z m 7.98207,-29.5583 c -0.67497,-0.675 -5.21581,24.3215 -5.07835,27.9554 0.0488,1.2891 1.28294,-4.4019 2.74263,-12.6467 1.45969,-8.2447 2.51076,-15.1337 2.33572,-15.3087 z m -50.10673,24.3228 c -0.51735,-0.9666 -1.21874,-3.6033 -1.55866,-5.8593 -0.33992,-2.256 -1.45334,-5.4905 -2.47427,-7.1878 -1.81421,-3.0162 -1.85177,-5.091 -0.18863,-10.42 0.50084,-1.6048 0.39083,-2.0624 -0.38111,-1.5853 -1.32147,0.8167 -1.34277,0.1009 -0.16947,-5.6966 0.50364,-2.4885 1.15674,-6.1129 1.45134,-8.05415 0.74581,-4.9145 9.93326,-14.67347 16.61649,-17.65017 4.02101,-1.79095 6.5541,-2.19678 13.82897,-2.21552 7.72922,-0.0199 9.58769,0.30437 14.0625,2.45369 9.29518,4.46461 15.67037,12.08709 16.87281,20.17392 0.44612,3.00033 1.11685,6.89183 1.4905,8.64773 0.53482,2.5134 0.41734,3.0307 -0.55215,2.4316 -0.94787,-0.5859 -1.06935,-0.2416 -0.52744,1.4948 1.66313,5.329 1.62558,7.4038 -0.18863,10.42 -1.02093,1.6973 -2.13435,4.9318 -2.47427,7.1878 -0.75759,5.028 -2.06587,7.6169 -3.84912,7.6169 -0.9929,0 -1.22734,-0.8056 -0.8866,-3.0469 0.36641,-2.41 0.27731,-2.6549 -0.42629,-1.1718 -1.24755,2.6296 -1.21971,0.3554 0.0821,-6.71 0.73998,-4.0161 1.38069,-5.5957 1.94514,-4.7956 0.5286,0.7493 0.66631,-0.2018 0.3702,-2.5569 -0.25932,-2.0625 -0.26446,-3.0351 -0.0114,-2.1614 0.28164,0.9725 1.01943,1.3741 1.90221,1.0353 0.79318,-0.3044 1.81497,0.035 2.27066,0.7551 1.24507,1.9663 1.09656,-3.5239 -0.15877,-5.8695 -0.74047,-1.3835 -0.71481,-2.6255 0.0946,-4.5797 0.96977,-2.3412 0.78621,-3.3219 -1.44752,-7.73341 -1.40698,-2.7787 -3.9417,-6.95867 -5.63272,-9.28886 -2.75617,-3.79794 -3.565,-4.30174 -7.81044,-4.86492 -2.60473,-0.34553 -4.97246,-1.01104 -5.26162,-1.4789 -0.60795,-0.98369 -1.72043,-1.12169 -9.39507,-1.16543 -5.76449,-0.0329 -8.31196,0.30815 -10.78125,1.4432 -0.77344,0.35553 -3.30469,0.96733 -5.625,1.35957 -3.76805,0.63696 -4.58806,1.26192 -7.67559,5.84979 -6.21588,9.23636 -7.66485,12.83266 -6.40039,15.88536 0.80722,1.9488 0.83218,3.1903 0.092,4.5733 -1.25532,2.3456 -1.40383,7.8358 -0.15877,5.8695 0.45569,-0.7197 1.47748,-1.0595 2.27067,-0.7551 0.88277,0.3388 1.62057,-0.063 1.9022,-1.0353 0.25305,-0.8737 0.24791,0.099 -0.0114,2.1614 -0.31814,2.5303 -0.18098,3.3348 0.42172,2.4736 0.63507,-0.9076 1.19721,0.4693 1.94514,4.7643 1.28998,7.4076 1.29242,8.1398 0.0212,6.3558 -0.76322,-1.071 -0.87711,-0.68 -0.47783,1.6407 0.59823,3.4769 -1.48413,4.3385 -3.11605,1.2892 z M 66.157517,1030.91 c -1.710829,-0.7431 -4.307205,-2.2031 -5.769723,-3.2445 -1.462517,-1.0414 -3.332279,-1.8935 -4.155025,-1.8935 -0.822747,0 -1.495903,-0.5287 -1.495903,-1.1749 0,-0.6462 -1.280586,-2.3836 -2.845747,-3.8608 -5.892569,-5.5617 -7.382099,-11.6356 -4.334189,-17.6739 1.97804,-3.9187 4.746843,-6.16695 15.008916,-12.18718 3.764453,-2.20841 4.856901,-3.61591 8.092511,-10.42629 4.364115,-9.18569 9.639135,-14.6769 14.099071,-14.6769 2.604725,0 2.780502,0.20326 2.229518,2.57812 -0.328979,1.41797 -1.180767,3.51251 -1.892862,4.65452 -1.736903,2.78554 -1.705625,7.76736 0.04877,7.76736 0.738917,0 2.935632,-2.00391 4.881588,-4.45313 1.945956,-2.44921 4.821858,-5.74237 6.39089,-7.31812 1.569033,-1.57574 4.425388,-5.16168 6.347458,-7.96875 1.92207,-2.80706 4.66426,-6.37069 6.09375,-7.91916 2.61394,-2.83151 5.44144,-6.18891 11.50533,-13.66157 1.80469,-2.22396 3.95769,-4.74351 4.78447,-5.59901 2.02885,-2.09934 2.97882,-10.26776 1.19412,-10.26776 -1.79319,0 -1.62563,-3.42102 0.20192,-4.12232 0.99599,-0.38219 1.65657,0.0526 1.98434,1.30595 0.58575,2.23991 1.50195,2.38026 3.08515,0.47262 0.95277,-1.14802 0.89793,-1.40625 -0.29863,-1.40625 -1.88069,0 -2.67458,-1.30285 -1.94786,-3.19665 0.80605,-2.10053 3.26424,-1.85525 3.84985,0.38415 0.53752,2.0555 1.68964,2.4354 2.65394,0.87513 0.33988,-0.54994 -0.14664,-1.55897 -1.08116,-2.2423 -1.44047,-1.05331 -1.50865,-1.47194 -0.44784,-2.75013 1.73346,-2.08869 3.8342,-1.88744 3.8342,0.3673 0,2.01127 1.36926,2.51426 2.3823,0.87513 0.33988,-0.54994 -0.12564,-1.54362 -1.03449,-2.20819 -0.99695,-0.72898 -1.41776,-1.81992 -1.0608,-2.75012 0.82447,-2.14855 3.53711,-1.92965 4.12885,0.33318 0.34836,1.33215 1.27877,1.875 3.21358,1.875 2.02763,0 3.00885,0.62682 3.84132,2.45388 0.98679,2.16577 0.86216,2.66109 -1.06145,4.21875 -1.19875,0.97068 -2.67506,1.76487 -3.2807,1.76487 -0.60564,0 -2.45341,2.74219 -4.10614,6.09375 -2.46845,5.00577 -3.41203,6.09375 -5.2849,6.09375 -1.78122,0 -3.98765,2.17613 -10.08688,9.94841 -13.70521,17.46461 -20.77417,26.13669 -21.56686,26.45784 -0.42423,0.17188 -0.77133,0.9234 -0.77133,1.67005 0,0.74665 -0.63281,1.60038 -1.40625,1.89717 -0.77344,0.2968 -1.40625,0.96615 -1.40625,1.48744 0,0.5213 -1.280298,2.48007 -2.845106,4.35282 -1.564808,1.87276 -3.357777,4.01821 -3.984375,4.76767 -5.71113,6.83088 -6.237362,7.77554 -5.303518,9.52044 1.154505,2.15721 5.770879,2.3847 7.445499,0.36691 1.468558,-1.7695 3.198071,-1.79466 4.63161,-0.0673 1.69777,2.04568 -0.9986,6.40955 -6.762638,10.94482 -5.631359,4.4308 -6.535746,5.8531 -8.496388,13.3612 -1.82935,7.0053 -5.211683,12.0874 -9.352482,14.0523 -3.950463,1.8746 -5.774211,1.8984 -9.849451,0.1283 z m 10.188405,-1.8808 c 1.521269,-0.7867 2.765944,-1.893 2.765944,-2.4585 0,-0.7381 -0.355067,-0.7336 -1.258133,0.016 -0.691974,0.5743 -1.535724,0.7665 -1.875,0.4273 -0.339277,-0.3393 -0.616867,-0.1699 -0.616867,0.3765 0,1.3192 -2.457025,2.2092 -4.225521,1.5305 -1.132853,-0.4347 -0.854029,-1.1789 1.40625,-3.7532 1.550599,-1.766 2.80989,-3.5127 2.798425,-3.8815 -0.01147,-0.3687 -0.749747,0.2332 -1.640625,1.3377 -0.890878,1.1045 -3.020726,2.7128 -4.732994,3.574 -2.545259,1.2802 -2.909139,1.8118 -1.994583,2.9137 1.45903,1.7581 5.889377,1.7191 9.373104,-0.082 z m -12.597166,-9.5578 c -0.400231,-0.4002 -1.326012,0.091 -2.057291,1.0907 -2.065232,2.8243 -1.56562,3.9876 0.727692,1.6943 1.131511,-1.1315 1.72983,-2.3848 1.329599,-2.785 z m 17.756347,2.6307 c -0.291456,-0.4716 -0.09405,-1.0027 0.43867,-1.1803 0.532725,-0.1776 1.568407,-2.5967 2.301516,-5.3757 0.733109,-2.7791 0.94649,-4.6665 0.474182,-4.1942 -0.472309,0.4723 -1.217925,2.539 -1.656927,4.5926 -0.559919,2.6192 -1.261247,3.6962 -2.349438,3.6077 -1.237498,-0.1005 -1.360019,0.2313 -0.605762,1.6407 0.52002,0.9716 1.166483,1.7666 1.436585,1.7666 0.270102,0 0.25263,-0.3858 -0.03883,-0.8574 z m -20.57328,-1.7207 c 1.90169,-2.5052 1.538991,-3.5492 -0.569957,-1.6406 -1.836497,1.662 -2.4658,3.2812 -1.275228,3.2812 0.329876,0 1.160208,-0.7383 1.845185,-1.6406 z m -1.474481,-1.6804 c 1.903352,-2.2934 -0.462486,-4.1513 -2.584316,-2.0294 -1.083028,1.083 -1.21452,1.6004 -0.406725,1.6004 0.656548,0 0.932989,0.4219 0.614315,0.9375 -0.92972,1.5043 1.059436,1.0788 2.376726,-0.5085 z m 17.39447,-2.0403 c -0.314221,-0.99 -1.93816,-2.8006 -3.608753,-4.0235 -3.119894,-2.2839 -2.496786,-0.9907 1.488169,3.0886 1.011188,1.0352 1.46859,2.3962 1.116331,3.3218 -0.450935,1.1849 -0.331335,1.3048 0.489392,0.4907 0.597395,-0.5927 0.829082,-1.8875 0.514861,-2.8776 z m 10.228804,-9.6387 c 0.79992,-1.5469 1.243462,-2.8125 0.98565,-2.8125 -0.257812,0 -1.12323,1.2656 -1.92315,2.8125 -0.79992,1.5469 -1.243462,2.8125 -0.98565,2.8125 0.257812,0 1.12323,-1.2656 1.92315,-2.8125 z m -22.376143,-1.7381 c -2.388791,-2.6396 -0.718445,-5.70693 5.647109,-10.37008 4.867202,-3.56551 7.98913,-6.8667 10.714095,-11.32929 0.763279,-1.25 0.970786,-1.25 1.867562,0 0.896776,1.25 0.966269,1.25 0.625438,0 -0.740511,-2.71583 -3.065067,-1.85883 -5.549182,2.04583 -1.379741,2.16875 -5.144654,6.07612 -8.366473,8.68305 -6.719321,5.43693 -8.509133,8.99849 -5.945611,11.83109 0.909128,1.0046 1.863898,1.6156 2.12171,1.3578 0.257813,-0.2578 -0.243779,-1.2561 -1.114648,-2.2184 z m 32.58324,-6.74508 c 3.108757,-3.69454 2.411115,-4.92193 -1.797968,-3.16327 -1.817421,0.75937 -4.409818,1.1169 -5.838899,0.80528 -1.980321,-0.43183 -2.247473,-0.33117 -1.16398,0.43851 1.815744,1.28987 5.242245,1.29851 7.632595,0.0192 3.408693,-1.82428 0.149099,2.78049 -3.486782,4.92566 -3.896252,2.2989 -4.264385,3.2396 -0.507485,1.2968 1.485456,-0.7682 3.808589,-2.7132 5.162519,-4.32221 z m 455.261657,28.23298 0,-3.8123 -7.73438,-0.01 c -7.39098,0 -12.25794,-0.8118 -17.74503,-2.9418 -5.28585,-2.0518 -6.66793,-11.8827 -2.42826,-17.2726 l 1.88061,-2.3907 -11.59585,0.3736 c -6.37772,0.2055 -13.65228,0.9086 -16.1657,1.5623 -4.96911,1.2924 -6.18268,0.6581 -6.18268,-3.23178 0,-3.90039 1.20985,-4.52757 6.18268,-3.20504 3.00832,0.80006 12.97898,1.32525 29.17923,1.53695 24.2186,0.3165 24.60938,0.29136 24.60938,-1.58328 0,-1.04768 0.47461,-1.90488 1.05469,-1.90488 0.67187,0 0.85051,-1.02084 0.49218,-2.8125 -0.41313,-2.06567 -0.21,-2.8125 0.76498,-2.8125 0.73012,0 1.58822,0.42187 1.9069,0.9375 0.31867,0.51562 0.13264,0.9375 -0.41342,0.9375 -0.54606,0 -0.99283,0.84375 -0.99283,1.875 0,1.03125 0.37267,1.875 0.82816,1.875 0.45548,0 1.14185,0.94921 1.52526,2.10937 l 0.69711,2.10938 0.41494,-2.10938 c 0.22821,-1.16016 0.83766,-2.10937 1.35433,-2.10937 0.51665,0 0.80373,-1.16016 0.63792,-2.57813 -0.21056,-1.80066 0.12261,-2.57812 1.10478,-2.57812 0.98217,0 1.31534,0.77746 1.10478,2.57812 -0.16581,1.41797 0.11967,2.57813 0.63438,2.57813 0.51472,0 1.12879,0.73828 1.36459,1.64062 0.40833,1.5625 0.43392,1.5625 0.5375,0 0.0598,-0.90234 0.56081,-1.64062 1.11334,-1.64062 0.55253,0 0.86894,-1.16016 0.70313,-2.57813 -0.21056,-1.80066 0.12261,-2.57812 1.10478,-2.57812 0.98217,0 1.31534,0.77746 1.10478,2.57812 -0.16581,1.41797 0.11967,2.57813 0.63438,2.57813 0.51472,0 1.12879,0.73828 1.36459,1.64062 0.33106,1.26683 0.45353,1.17264 0.5375,-0.41342 0.14323,-2.70529 1.67442,-3.61971 1.58443,-0.94622 l -0.0694,2.06316 22.5,-0.19949 c 23.12218,-0.205 34.10859,-1.24216 37.63525,-3.55292 1.10757,-0.72571 2.79587,-2.92049 3.75176,-4.87729 3.94679,-8.07942 7.34826,-1.40124 6.60957,12.97669 -0.70212,13.6659 -4.60226,20.0484 -7.70831,12.6146 -0.73414,-1.757 -2.37767,-4.0149 -3.65228,-5.0175 -2.11024,-1.66 -13.28226,-4.7451 -14.02836,-3.874 -0.17306,0.2021 -0.57382,3.2708 -0.89057,6.8194 -0.56946,6.3799 -0.55522,6.4332 1.2754,4.7765 2.7079,-2.4506 2.26063,-0.1401 -0.64026,3.3074 -2.18023,2.5911 -2.89196,2.886 -5.69607,2.3599 -1.91304,-0.3589 -3.72607,-0.1683 -4.49863,0.4729 -0.71176,0.5907 -1.79966,0.7615 -2.41753,0.3797 -0.7107,-0.4393 -0.87767,-0.2967 -0.45449,0.388 0.72121,1.167 -1.49319,1.5309 -2.59723,0.4269 -1.03309,-1.0331 -9.41734,-0.2319 -10.20111,0.9749 -0.51881,0.7988 -0.92428,0.7481 -1.52991,-0.1911 -0.69569,-1.079 -0.91468,-1.079 -1.40625,0 -0.45088,0.9896 -0.70561,1.0135 -1.1291,0.106 -0.30079,-0.6445 -2.16407,-1.1718 -4.14063,-1.1718 -1.97656,0 -3.83984,0.5273 -4.14063,1.1718 -0.43749,0.9375 -0.65625,0.9375 -1.09374,0 -0.30079,-0.6445 -2.17376,-1.1718 -4.16217,-1.1718 -3.50093,0 -3.62448,0.1112 -3.90624,3.5156 -0.25035,3.0248 -0.64076,3.556 -2.79665,3.8053 -1.98658,0.2296 -2.59134,-0.1588 -2.9192,-1.875 l -0.41353,-2.1647 -0.12767,2.1094 c -0.10231,1.6904 -0.68634,2.1094 -2.94017,2.1094 -2.1875,0 -2.8125,-0.4167 -2.8125,-1.875 0,-1.0313 -0.375,-1.875 -0.83334,-1.875 -0.45833,0 -0.77474,0.7382 -0.70312,1.6406 0.09,1.134 -0.66585,1.7322 -2.44792,1.9372 -2.43846,0.2806 -2.57812,0.09 -2.57812,-3.5156 z m 12.83374,-5.4529 c -0.2358,-0.9023 -0.42874,-0.1641 -0.42874,1.6406 0,1.8047 0.19294,2.543 0.42874,1.6406 0.2358,-0.9023 0.2358,-2.3789 0,-3.2812 z m -6.27124,2.5781 c 0,-0.5156 -0.42188,-0.9375 -0.9375,-0.9375 -0.51563,0 -0.9375,0.4219 -0.9375,0.9375 0,0.5156 0.42187,0.9375 0.9375,0.9375 0.51562,0 0.9375,-0.4219 0.9375,-0.9375 z m 58.125,-4.6875 c 0,-0.5156 -0.39698,-0.9375 -0.88217,-0.9375 -0.48519,0 -1.14291,0.4219 -1.46158,0.9375 -0.31868,0.5156 0.0783,0.9375 0.88217,0.9375 0.80387,0 1.46158,-0.4219 1.46158,-0.9375 z m -66.5625,-0.9375 c 0,-0.5514 -3.28125,-0.9375 -7.96875,-0.9375 -4.6875,0 -7.96875,0.3861 -7.96875,0.9375 0,0.5515 3.28125,0.9375 7.96875,0.9375 4.6875,0 7.96875,-0.386 7.96875,-0.9375 z m 8.4375,0 c 0,-0.5156 -0.42188,-0.9375 -0.9375,-0.9375 -0.51563,0 -0.9375,0.4219 -0.9375,0.9375 0,0.5156 0.42187,0.9375 0.9375,0.9375 0.51562,0 0.9375,-0.4219 0.9375,-0.9375 z m 6.27124,-3.5156 c -0.2358,-0.9023 -0.42874,-0.1641 -0.42874,1.6406 0,1.8047 0.19294,2.543 0.42874,1.6406 0.2358,-0.9023 0.2358,-2.3789 0,-3.2812 z m -33.00033,1.6732 c 0.73623,-2.3196 4.6865,-3.1083 13.48537,-2.6924 l 6.68545,0.3161 -0.002,-6.7969 -0.002,-6.7969 -9.40511,0 c -11.69899,0 -15.25268,1.2693 -16.81602,6.0063 -1.39017,4.2122 -0.50067,8.5569 2.12896,10.3988 2.63101,1.8428 3.22346,1.7772 3.92558,-0.435 z m 61.65096,1.1449 c -4.2539,-0.1737 -11.21484,-0.1737 -15.46875,0 -4.2539,0.1738 -0.77343,0.3159 7.73438,0.3159 8.50781,0 11.98828,-0.1421 7.73437,-0.3159 z m 13.84248,-0.4744 c 0.0112,-0.9123 0.18352,-0.9052 0.77808,0.032 1.12326,1.7703 3.74895,0.3921 5.42392,-2.8469 1.01324,-1.9594 1.2769,-4.0401 0.86229,-6.8049 l -0.59722,-3.9826 -5.35008,-0.4542 c -3.37725,-0.2867 -5.60408,-0.069 -6.03886,0.5904 -1.27598,1.9352 -0.7871,9.6635 0.68877,10.8884 0.77344,0.6419 1.40625,1.7482 1.40625,2.4585 0,0.7103 0.63281,1.2915 1.40625,1.2915 0.77344,0 1.41271,-0.5274 1.4206,-1.1719 z m -35.29523,-4.6875 c -0.47839,-0.7962 -0.19564,-0.7594 0.88217,0.1148 1.34445,1.0906 1.82797,1.0906 3.17242,0 1.07781,-0.8742 1.36056,-0.911 0.88217,-0.1148 -0.532,0.8856 0.67047,1.1719 4.92096,1.1719 3.09375,0 5.90845,-0.4586 6.25489,-1.0192 0.45358,-0.7339 0.91516,-0.7339 1.64908,0 0.56055,0.5606 3.25513,1.0192 5.98794,1.0192 l 4.96875,0 0,-5.4836 0,-5.4836 -9.14063,-0.6053 c -5.02734,-0.3329 -11.77734,-0.6075 -15,-0.6101 l -5.85937,0 0,6.0937 c 0,3.6639 0.39589,6.0938 0.99283,6.0938 0.54606,0 0.67601,-0.5274 0.28879,-1.1719 z m -13.46912,-6.3834 c 0,-3.5482 -0.3519,-5.4628 -0.9375,-5.1009 -0.51563,0.3186 -0.9375,2.8748 -0.9375,5.6803 0,2.8055 0.42187,5.1009 0.9375,5.1009 0.52185,0 0.9375,-2.5184 0.9375,-5.6803 z m 6.30443,-2.0373 c -0.20865,-1.685 -0.38367,-0.5324 -0.38893,2.5614 -0.006,3.0937 0.16545,4.4724 0.37937,3.0636 0.21391,-1.4087 0.21821,-3.9399 0.01,-5.625 z m 132.44557,24.5926 c 0,-1.3941 -0.66125,-1.9029 -2.57813,-1.9837 -1.58494,-0.067 -1.94635,-0.2739 -0.93813,-0.5374 0.90198,-0.2357 1.89694,-1.4524 2.211,-2.7037 0.696,-2.7731 2.24276,-3.0109 2.24276,-0.3448 0,1.0616 0.42485,1.6677 0.94412,1.3468 0.51927,-0.3209 1.17932,0.029 1.4668,0.7786 0.72868,1.8989 4.15158,0.8293 4.15158,-1.2973 0,-0.9407 0.42187,-1.9711 0.9375,-2.2897 0.51562,-0.3187 0.9375,0.276 0.9375,1.3215 0,1.3045 0.44119,1.7316 1.40625,1.3613 0.88331,-0.339 1.40625,0.01 1.40625,0.9375 0,0.8803 0.52982,1.2738 1.31142,0.9738 2.79488,-1.0725 2.24736,1.3587 -0.62141,2.7593 -2.86898,1.4006 -3.07974,1.3812 -3.88015,-0.358 -1.00817,-2.1907 -2.70586,-2.3656 -4.30129,-0.4432 -0.63719,0.7677 -1.5326,1.1647 -1.9898,0.8821 -0.4572,-0.2825 -0.83127,-0.067 -0.83127,0.4791 0,0.546 -0.42188,0.9928 -0.9375,0.9928 -0.51563,0 -0.9375,-0.8437 -0.9375,-1.875 z m -566.88783,-4.5782 c -4.54867,-3.295 -6.31777,-7.2227 -5.70439,-12.6645 0.36693,-3.2554 3.57315,-9.0211 15.76157,-28.34387 35.11499,-55.66911 49.1564,-78.63794 50.93534,-83.31965 2.95945,-7.78853 2.21033,-17.13589 -1.8671,-23.29731 l -2.4308,-3.6732 2.67473,0.65627 c 3.76796,0.9245 12.17853,5.21092 18.68652,9.52352 5.33374,3.53447 18.20895,14.99246 18.20505,16.20115 -9.3e-4,0.32426 -3.51597,0.58957 -7.81094,0.58957 -7.05449,0 -8.25162,0.27381 -12.38951,2.83377 -2.51926,1.55858 -6.3235,5.14451 -8.45389,7.96875 -5.24142,6.94854 -25.83129,36.68116 -26.36514,38.07235 -0.54834,1.42891 17.34382,12.18171 18.35869,11.03317 0.92181,-1.04324 38.93907,-54.04425 73.90489,-103.03304 28.001,-39.23073 30.06335,-41.51478 35.32195,-39.1188 2.85695,1.30172 3.21187,4.43002 0.99005,8.72655 -0.79519,1.53774 -20.62332,29.57593 -44.0625,62.3071 -23.43918,32.73118 -42.61669,60.35052 -42.61669,61.37631 0,1.0258 -0.59039,1.86509 -1.31199,1.86509 -2.10476,0 -13.35954,15.92655 -14.07815,19.92187 -0.76288,4.24146 -1.94732,4.38288 -6.20777,0.74123 -2.41096,-2.06078 -2.82385,-2.7842 -1.60522,-2.8125 0.90234,-0.0209 1.64063,-0.4183 1.64063,-0.88299 0,-0.4647 1.37109,-1.66729 3.04687,-2.67242 1.67578,-1.00513 3.77553,-3.09951 4.66611,-4.65416 1.54727,-2.70103 1.54138,-2.89711 -0.13242,-4.41188 -2.01329,-1.82198 -0.60867,-3.64342 -26.33183,34.14585 -7.89718,11.60157 -15.87366,23.12587 -17.7255,25.60957 -7.48901,10.0443 -17.35795,12.9195 -25.09856,7.3122 z m 14.51251,-2.364 c 1.39236,-0.7244 3.51158,-2.3664 4.70938,-3.6489 l 2.17782,-2.3317 -2.07968,-1.4566 c -1.30906,-0.9169 -3.08078,-1.2565 -4.78139,-0.9164 -2.98652,0.5973 -6.3964,-1.6927 -6.40674,-4.3026 -0.003,-0.8224 -1.27117,-2.2153 -2.81756,-3.0953 -2.75715,-1.5689 -2.84103,-1.555 -4.32951,0.7167 -2.00046,3.0531 -2.62497,9.8378 -1.07763,11.7075 3.75803,4.5411 9.67969,5.8901 14.60531,3.3273 z m 12.71133,-14.1371 c 1.87769,-2.828 3.41399,-5.4778 3.41399,-5.8885 0,-0.5592 -14.00454,-9.2684 -17.89117,-11.1262 -0.53028,-0.25347 -8.35883,10.3264 -8.35883,11.2965 0,1.1644 4.53273,2.7859 7.92877,2.8362 3.14334,0.047 3.93093,0.4823 5.15625,2.852 1.583,3.0614 3.67882,5.0955 5.29787,5.142 0.57153,0.016 2.57543,-2.284 4.45312,-5.112 z m 17.90166,-26.74136 c 6.63214,-9.80139 11.88634,-17.94972 11.676,-18.10739 -2.0421,-1.53089 -17.98017,-10.98844 -18.14686,-10.76825 -3.65868,4.83304 -23.95431,34.86465 -23.95431,35.44538 0,0.72285 16.52103,11.09245 17.85525,11.20703 0.28132,0.0242 5.93778,-7.97539 12.56992,-17.77677 z m 31.20758,-29.32592 c 2.98016,-4.1498 2.98721,-4.18641 1.12966,-5.86747 -2.00521,-1.8147 -1.94934,-1.84804 -5.86101,3.49841 -2.95678,4.0413 -3.10091,5.0385 -0.9058,6.26694 2.02823,1.13505 2.01739,1.14255 5.63715,-3.89788 z m 48.07498,-67.18309 c 23.37476,-32.71728 42.68492,-60.45556 42.91146,-61.64063 0.59923,-3.13464 -1.7006,-2.73549 -5.14066,0.8922 -2.27293,2.3969 -81.07977,111.82598 -84.09914,116.77783 -0.84759,1.39007 2.18919,5.35545 3.20254,4.18183 0.34443,-0.39891 19.75104,-27.49396 43.1258,-60.21123 z m 520.89853,135.77297 c -4.96125,-4.4219 -5.26582,-4.9203 -3.91733,-6.4103 1.33225,-1.4721 1.24729,-2.1015 -0.95617,-7.0839 -1.67717,-3.7924 -1.96849,-5.095 -0.95054,-4.2501 0.80728,0.6699 1.48273,1.9047 1.501,2.7439 0.0468,2.15 2.40588,6.1698 3.02907,5.1614 0.28434,-0.4601 -1.36153,-4.6303 -3.6575,-9.2673 -3.85266,-7.78076 -4.16849,-8.0366 -2.59571,-2.1026 0.30749,1.16016 -0.76282,-0.59825 -2.37847,-3.90759 -1.92508,-3.94313 -2.58994,-6.2318 -1.929,-6.64027 1.4848,-0.91767 -0.41303,-5.27649 -2.86988,-6.59136 -1.35969,-0.72768 -1.711,-1.39088 -1.07413,-2.02776 1.37918,-1.37917 -2.34066,-9.83813 -4.58435,-10.42487 -1.29483,-0.3386 -1.78575,0.0244 -1.78575,1.32025 0,0.98298 -0.63281,1.78723 -1.40625,1.78723 -2.2636,0 -1.62746,-3.63452 1.07439,-6.13852 1.72691,-1.60045 2.04633,-2.29898 1.05124,-2.29898 -1.70137,0 -3.9767,-4.9886 -3.19932,-7.01441 0.32177,-0.83849 0.0272,-1.42309 -0.71699,-1.42309 -1.74964,0 -3.67578,-5.0457 -2.88149,-7.54829 0.40542,-1.27738 0.2999,-1.84249 -0.27742,-1.48569 -1.11915,0.69168 -2.53973,-0.93347 -3.47349,-3.97369 -0.43246,-1.40803 -0.26465,-2.48547 0.45652,-2.93119 0.8891,-0.54949 0.86425,-1.46827 -0.1128,-4.17025 -1.03171,-2.85314 -1.62962,-3.39352 -3.38376,-3.05819 -1.52429,0.29138 -2.13063,-0.0359 -2.13063,-1.1502 0,-0.85663 -0.52245,-2.07995 -1.16099,-2.71849 -0.63855,-0.63855 -1.18155,-1.67214 -1.20667,-2.29688 -0.0251,-0.62474 -0.76101,-3.40278 -1.63534,-6.17345 -0.87431,-2.77066 -1.3611,-5.40738 -1.08175,-5.85938 0.27935,-0.45198 -0.1498,-0.8218 -0.95367,-0.8218 -0.80481,0 -1.46158,-0.79096 -1.46158,-1.76021 0,-0.96811 -0.62817,-2.28154 -1.39593,-2.91872 -0.76776,-0.63719 -1.19873,-1.47759 -0.9577,-1.86759 0.24102,-0.38998 -0.45099,-3.34216 -1.5378,-6.56039 -1.56606,-4.63734 -1.72626,-6.0057 -0.77216,-6.59537 1.71876,-1.06225 -2.36129,-10.79741 -5.81488,-13.87458 -1.45559,-1.29694 -2.64653,-2.84965 -2.64653,-3.45047 0,-0.60082 -1.00138,-3.07038 -2.2253,-5.48792 -1.22391,-2.41753 -1.85672,-4.6233 -1.40625,-4.90171 0.45048,-0.27841 0.81259,-1.00864 0.80469,-1.62274 -0.0102,-0.79565 -0.23365,-0.77096 -0.77735,0.0859 -0.51705,0.81485 -1.17579,-0.0483 -2.04358,-2.67775 -0.70432,-2.13411 -1.8197,-4.08708 -2.47862,-4.33993 -0.9646,-0.37015 -0.95071,-1.05168 0.0712,-3.49767 2.04697,-4.8991 -0.31064,-7.9919 -6.11093,-8.0165 -3.64533,-0.0155 -8.38067,2.68416 -13.95895,7.95805 -1.80469,1.7062 -6.65625,5.12053 -10.78125,7.5874 -4.125,2.46686 -7.71094,4.77036 -7.96875,5.11889 -0.67055,0.90655 -13.67316,6.50881 -15.10663,6.50881 -0.65925,0 0.14974,-1.39118 1.79776,-3.09151 1.64802,-1.70033 2.99641,-3.5931 2.99641,-4.20617 0,-1.39998 5.00891,-3.5291 10.40798,-4.42407 5.32132,-0.88209 6.81091,-1.71036 12.28563,-6.83132 2.82108,-2.6388 4.36253,-4.80001 4.08829,-5.73204 -0.46117,-1.56726 5.24133,-6.62693 10.93153,-9.69927 3.52874,-1.90528 10.91501,-2.16813 13.1723,-0.46875 0.85612,0.64454 3.09714,4.125 4.98004,7.73438 1.88291,3.60937 4.21619,7.43344 5.1851,8.49792 0.9689,1.06449 1.76163,2.98643 1.76163,4.27099 0,1.28456 1.04067,3.74612 2.3126,5.47012 1.27193,1.72401 2.07324,3.52187 1.78067,3.99524 -0.29255,0.47338 0.32773,1.08549 1.37843,1.36025 1.97074,0.51536 3.9033,4.63024 3.9033,8.31103 0,1.30607 0.7058,2.27909 1.875,2.58484 1.51849,0.39709 1.875,1.27876 1.875,4.6369 0,3.69722 0.22859,4.13852 2.10937,4.07215 1.87367,-0.0661 2.10534,0.37079 2.07323,3.90993 -0.0359,3.95637 1.00663,5.27333 2.04087,2.57813 0.70988,-1.84991 2.79994,-1.79972 3.52302,0.0846 0.87974,2.29259 -0.23514,3.26659 -2.95709,2.58343 l -2.47069,-0.62011 2.0594,2.6181 c 1.13266,1.43995 2.05939,3.61588 2.05939,4.83541 0,1.21953 0.42187,2.21732 0.9375,2.21732 0.51562,0 0.9375,-0.58768 0.9375,-1.30595 0,-2.3892 2.9803,-2.62076 4.57768,-0.35567 0.8263,1.1717 1.50546,2.39682 1.50922,2.72248 0.019,1.64936 21.55717,47.68914 22.30969,47.68914 1.22012,0 0.34908,-4.13245 -2.27247,-10.78125 -2.0653,-5.23805 -2.21787,-6.88858 -2.21787,-23.99313 0,-14.93365 -0.26294,-18.69146 -1.40625,-20.0974 -1.6884,-2.07625 -3.57554,-2.6992 19.14753,6.3207 12.74361,5.05856 16.34946,6.8383 14.92352,7.36579 -2.90111,1.07319 -6.71987,6.16034 -7.90065,10.52479 -2.06461,7.63139 -0.70323,13.12717 9.73044,39.28112 12.79002,32.06058 13.70857,36.71915 9.04317,45.86415 -4.58379,8.985 -17.84347,14.4933 -26.74315,11.1097 -2.10673,-0.801 -2.89518,-0.6402 -4.56816,0.9314 l -2.02195,1.8996 -5.37949,-4.7947 z m 5.95624,-0.7629 c 0,-1.1062 -1.82846,-2.2894 -2.50001,-1.6179 -0.67154,0.6716 0.51172,2.5 1.61784,2.5 0.48519,0 0.88217,-0.397 0.88217,-0.8821 z m -3.96485,-3.9812 c -0.57944,-1.7383 -2.59765,-2.0266 -2.59765,-0.371 0,0.8164 0.66797,1.4843 1.48437,1.4843 0.81641,0 1.31738,-0.501 1.11328,-1.1133 z m 17.49163,-11.6099 c 1.86734,-1.8673 1.87192,-4.10285 0.0138,-6.75567 -1.48284,-2.1171 -4.16556,-2.85521 -4.16556,-1.1461 0,0.51562 -0.42188,0.9375 -0.9375,0.9375 -0.51563,0 -0.9375,-0.63281 -0.9375,-1.40625 0,-1.45691 -1.47201,-1.93814 -2.1508,-0.70313 -0.71321,1.29767 1.14178,6.36655 3.0985,8.46685 2.30039,2.4692 3.11892,2.567 5.07908,0.6068 z m -8.03607,-10.61144 c 0.77264,-0.48957 0.90635,-1.03192 0.3406,-1.38157 -0.51225,-0.31659 -1.45269,0.0526 -2.08988,0.82031 -1.26504,1.52428 -0.27294,1.8426 1.74928,0.56126 z m 5.75929,-1.01956 c 0,-1.53603 -5.02708,-11.27077 -5.8203,-11.27077 -1.13071,0 -0.94337,0.72353 1.72957,6.67964 2.22242,4.9522 4.09073,7.04905 4.09073,4.59113 z m -10.8182,-24.4777 c -0.90974,-2.01744 -2.22992,-3.66807 -2.93373,-3.66807 -0.92553,0 -0.58627,1.36204 1.22595,4.92187 2.81265,5.525 4.2791,4.44837 1.70778,-1.2538 z m -21.9943,-32.67524 c 0,-1.00082 -0.42188,-2.08041 -0.9375,-2.39908 -0.53171,-0.32861 -0.9375,0.45902 -0.9375,1.81967 0,1.31949 0.42187,2.39908 0.9375,2.39908 0.51562,0 0.9375,-0.81885 0.9375,-1.81967 z m -18.75,-6.09375 c 0,-1.51319 -1.32778,-2.6338 -2.1484,-1.81319 -0.7316,0.73161 0.27643,3.16411 1.3112,3.16411 0.46045,0 0.8372,-0.60791 0.8372,-1.35092 z m -1.88936,-4.50846 c -0.0211,-1.72042 -1.6614,-4.02736 -2.36401,-3.32474 -0.81971,0.8197 0.41016,4.49662 1.50405,4.49662 0.48087,0 0.86786,-0.52734 0.85996,-1.17188 z m 13.62621,-4.39608 c -0.34202,-1.07759 -1.01449,-1.7166 -1.49438,-1.42001 -0.52483,0.32436 -0.46767,1.29578 0.14345,2.43765 1.25734,2.34938 2.19532,1.6428 1.35093,-1.01764 z m -19.23685,-10.36954 c 0,-1.03125 -0.59332,-1.875 -1.31848,-1.875 -0.85693,0 -1.14684,0.65638 -0.82816,1.875 0.26968,1.03125 0.86299,1.875 1.31848,1.875 0.45548,0 0.82816,-0.84375 0.82816,-1.875 z m -1.88936,-4.92188 c -0.0211,-1.72042 -1.6614,-4.02736 -2.36401,-3.32474 -0.81971,0.8197 0.41016,4.49662 1.50405,4.49662 0.48087,0 0.86786,-0.52734 0.85996,-1.17188 z m -14.40599,-35.07336 c -0.79315,-1.46356 -1.45897,-2.10593 -1.47961,-1.4275 -0.0492,1.61887 1.85646,5.15373 2.45553,4.55467 0.25639,-0.25639 -0.18277,-1.66362 -0.97592,-3.12717 z m -2.9656,-9.92664 c -0.75541,-2.50033 -2.06342,-4.06626 -2.78977,-3.33989 -0.71441,0.71439 1.52465,5.44927 2.57687,5.44927 0.46761,0 0.56341,-0.94922 0.2129,-2.10938 z m -2.30155,-6.32812 c 0,-0.51563 -0.18604,-0.9375 -0.41342,-0.9375 -0.22738,0 -0.67416,0.42187 -0.99283,0.9375 -0.31868,0.51562 -0.13264,0.9375 0.41342,0.9375 0.54605,0 0.99283,-0.42188 0.99283,-0.9375 z m -10.70126,-12.73311 c 1.82511,-0.34239 5.28636,-0.40072 7.69166,-0.1296 3.92244,0.44211 4.18787,0.35736 2.57475,-0.82218 -2.42172,-1.7708 -9.28052,-1.66409 -12.97108,0.20182 -4.11842,2.08222 -9.09407,5.8914 -9.09407,6.96209 0,0.48598 1.90807,-0.57287 4.24017,-2.353 2.3321,-1.78013 5.73345,-3.51674 7.55857,-3.85913 z M 212.57294,1018.667 c -2.54526,-3.8887 -2.57194,-24.99656 -0.0365,-28.86374 l 1.70583,-2.6018 2.13218,2.30065 c 1.1727,1.26537 2.93632,2.53187 3.91916,2.81447 4.14094,1.19066 12.75975,2.54574 22.412,3.52371 16.99519,1.72196 19.48789,1.81296 20.75931,0.75777 0.73605,-0.61086 2.98617,-0.77508 5.69734,-0.41579 8.93718,1.18438 23.11686,0.91422 25.46271,-0.48514 1.74088,-1.03847 2.32522,-1.07355 2.65625,-0.15948 0.70131,1.93654 3.03275,1.33054 5.41016,-1.40625 1.94311,-2.23684 2.48986,-2.42553 4.13031,-1.42544 1.18989,0.7254 2.10112,0.81228 2.45829,0.23437 1.31268,-2.12398 3.26968,-0.85543 3.28373,2.12857 0.0108,2.28758 0.23597,2.69643 0.90364,1.64063 0.72699,-1.14961 3.19663,-1.37839 13.53239,-1.25355 9.89,0.11945 12.88249,-0.13574 13.74241,-1.17188 1.26477,-1.52396 5.16835,-1.7747 6.02596,-0.38707 0.89603,1.44982 2.34986,1.10678 1.76531,-0.41653 -0.73664,-1.91966 3.34517,-1.57891 5.73469,0.47873 1.58002,1.36059 4.00178,1.62268 15.39376,1.66598 11.82705,0.045 21.55059,0.7553 35.23124,2.57379 2.0625,0.27416 11.62127,0.63805 21.24171,0.80867 23.7383,0.42098 28.44993,1.04613 33.36766,4.42743 2.19141,1.5067 3.98438,3.1153 3.98438,3.5745 0,0.4593 -1.79297,1.0584 -3.98438,1.3315 -2.1914,0.273 -5.67187,0.7158 -7.73437,0.9839 -2.0625,0.268 -15.12268,0.5036 -29.02262,0.5234 -18.86116,0.027 -25.46111,0.3271 -26.01563,1.183 -0.50174,0.7745 -0.97131,0.8291 -1.44613,0.1684 -0.44641,-0.6213 -8.04653,-1.0192 -20.81604,-1.0898 -17.68659,-0.098 -20.24931,0.075 -21.24346,1.4348 -1.04698,1.4318 -1.26347,1.4258 -2.92964,-0.082 -1.38017,-1.249 -3.47934,-1.6282 -9.01415,-1.6282 -6.83339,0 -7.26215,0.124 -8.1061,2.3438 -1.01798,2.6775 -2.34782,3.0076 -3.53925,0.8786 -0.45095,-0.8058 -1.42113,-1.5858 -2.15596,-1.7334 -0.73482,-0.1475 -2.01567,-0.5655 -2.84634,-0.9289 -0.83066,-0.3633 -17.28378,-0.4598 -36.5625,-0.2144 -28.46493,0.3623 -37.60684,0.8066 -48.64595,2.3641 -17.07936,2.4097 -20.5977,3.3814 -23.10143,6.3801 l -2.00767,2.4046 -1.74233,-2.6619 z m 140.75768,-24.76997 c -0.31868,-0.51563 -0.97639,-0.9375 -1.46158,-0.9375 -0.4852,0 -0.88217,0.42187 -0.88217,0.9375 0,0.51562 0.65771,0.9375 1.46158,0.9375 0.80387,0 1.20084,-0.42188 0.88217,-0.9375 z M 64.948544,946.68997 c -2.891389,-1.18942 -6.542452,-3.07783 -8.113472,-4.19651 -1.571021,-1.11866 -3.554455,-2.03393 -4.407631,-2.03393 -0.853178,0 -1.329991,-0.35798 -1.059572,-0.79553 0.270412,-0.43753 -0.268169,-1.61109 -1.196839,-2.60789 -4.33881,-4.65718 -7.61494,-10.2924 -8.63588,-14.85446 -1.02364,-4.57409 -0.93773,-5.36619 1.02086,-9.4121 2.47986,-5.12271 7.99746,-9.09576 15.784916,-11.36621 6.802248,-1.98322 9.784895,-5.08584 13.393797,-13.93256 3.312096,-8.11914 8.167891,-14.10264 12.210627,-15.04642 3.716458,-0.8676 4.313491,2.19893 1.294307,6.64795 -1.307785,1.92713 -2.377791,4.4343 -2.377791,5.57149 0,2.18737 2.643839,5.17073 4.582273,5.17073 0.634361,0 0.892651,0.42187 0.573977,0.9375 -0.318674,0.51562 -0.153597,0.9375 0.366837,0.9375 0.520434,0 1.283613,-0.58601 1.695953,-1.30224 0.41234,-0.71623 3.070022,-3.80869 5.90596,-6.87214 2.835937,-3.06344 7.687504,-8.45541 10.781254,-11.98214 3.09375,-3.52674 6.70594,-7.58584 8.0271,-9.02022 1.32116,-1.43438 4.34238,-4.84313 6.71384,-7.57499 2.37145,-2.73186 5.65755,-6.44358 7.30244,-8.24827 1.6449,-1.80469 4.49556,-5.09899 6.33482,-7.32066 l 3.3441,-4.03941 2.36322,2.36321 c 2.16135,2.16135 2.23926,2.50639 0.91217,4.03941 -0.79809,0.92191 -8.09688,9.48089 -16.21955,19.01995 -8.12267,9.53906 -15.88693,18.60937 -17.2539,20.15625 -1.36698,1.54687 -5.20706,6.1875 -8.533508,10.3125 -3.326454,4.125 -6.274254,7.71094 -6.550668,7.96875 -0.276412,0.25781 -1.128111,1.3125 -1.892662,2.34375 -1.376217,1.85628 -1.369198,1.85717 0.703125,0.0891 2.17674,-1.85718 2.487511,-1.39758 1.207606,1.78593 -1.870921,4.65354 3.811067,6.85691 9.308337,3.6096 3.05828,-1.80657 5.63978,-1.15435 5.63978,1.42489 0,2.13516 -4.08132,5.69594 -11.250004,9.81516 -6.064472,3.48473 -8.433906,7.42394 -8.436043,14.02503 -0.0025,7.72298 -4.825833,13.88786 -12.188957,15.57918 -5.547531,1.27428 -5.289002,1.30143 -11.350822,-1.19217 z m 13.323134,-4.63313 c -1.203269,-1.20327 -2.423489,-0.27328 -1.532659,1.16811 0.345073,0.55834 1.05689,0.74973 1.581814,0.42531 0.640315,-0.39574 0.624138,-0.92012 -0.04915,-1.59342 z M 51.69837,931.15651 c -9.136,-10.16143 -7.04612,-20.00588 5.103755,-24.04143 5.839809,-1.93967 12.009783,-5.38464 14.536503,-8.11637 1.931061,-2.08775 9.137989,-19.85139 7.69117,-18.95721 -0.403727,0.24952 -1.606487,2.78547 -2.6728,5.63544 -4.650719,12.43016 -7.526911,15.43773 -18.311911,19.14831 -7.249767,2.49428 -11.228407,5.27769 -13.072917,9.14567 -1.85458,3.88911 -1.85595,5.37932 -0.01,10.79721 0.94354,2.76912 2.99702,5.73268 5.69626,8.22074 5.642967,5.20151 6.308866,4.02808 1.039832,-1.83236 z m 14.757246,0.86552 c 0.318674,-0.51563 0.02717,-0.94116 -0.647797,-0.94563 -0.674961,-0.005 -2.809234,-1.5076 -4.742828,-3.34029 -1.933594,-1.83269 -3.515625,-2.8894 -3.515625,-2.34824 0,1.04102 6.575753,7.50309 7.679047,7.54629 0.356288,0.0139 0.908529,-0.39651 1.227203,-0.91213 z m 14.296748,-3.3595 c -0.893399,-0.8934 -2.684524,0.55368 -2.018727,1.63097 0.395737,0.64031 0.920124,0.62414 1.593417,-0.0491 0.551959,-0.55196 0.743349,-1.26378 0.42531,-1.58181 z m -8.16502,-0.46146 c 0.947838,-1.77105 0.870455,-1.85445 -0.860907,-0.92785 -1.591686,0.85184 -2.483519,0.51895 -5.46106,-2.03842 -5.758525,-4.94591 -5.930667,-5.17421 -5.256538,-6.97124 0.564522,-1.50486 0.451592,-1.55573 -0.940194,-0.42362 -0.869978,0.70767 -1.569332,1.76236 -1.554118,2.34375 0.02729,1.04282 11.060884,9.92418 12.361229,9.95002 0.368577,0.008 1.138792,-0.86236 1.711588,-1.93264 z m 16.289431,-23.03039 c 0.473373,-1.23359 0.330007,-1.32265 -0.722714,-0.44897 -1.048228,0.86994 -1.915535,0.40389 -4.29801,-2.3096 -1.641631,-1.86972 -3.254183,-3.13008 -3.583451,-2.80081 -0.578401,0.5784 6.18887,7.04379 7.410839,7.08025 0.331552,0.01 0.868554,-0.6745 1.193336,-1.52087 z m -2.733659,-10.64865 c 0.933268,-1.03125 1.485914,-1.875 1.228102,-1.875 -0.257813,0 -1.232334,0.84375 -2.165602,1.875 -0.933268,1.03125 -1.485914,1.875 -1.228102,1.875 0.257813,0 1.232334,-0.84375 2.165602,-1.875 z m 762.355744,18.13699 c -0.33716,-0.33716 -0.35999,-2.19534 -0.0507,-4.1293 0.46971,-2.93738 0.23938,-3.68909 -1.399,-4.56592 -1.84396,-0.98686 -6.58943,-0.48482 -7.62475,0.80664 -1.48367,1.85072 -5.36737,2.42178 -11.12396,1.63566 -5.7998,-0.79202 -6.4362,-1.12089 -9.4246,-4.87044 -2.05304,-2.57594 -3.70387,-3.82956 -4.59345,-3.4882 -1.10377,0.42355 -1.25598,0.004 -0.74198,-2.04358 0.38001,-1.51413 0.28741,-2.35444 -0.22458,-2.03801 -0.47918,0.29614 -1.14972,1.64808 -1.49011,3.0043 -0.34039,1.35622 -1.25159,3.09856 -2.0249,3.87186 -0.7733,0.7733 -1.64896,2.62078 -1.9459,4.10551 -0.55973,2.79865 -2.55564,3.64229 -3.40158,1.43777 -0.2663,-0.69393 0.2918,-3.54159 1.2402,-6.32812 0.94838,-2.78652 1.76797,-4.64454 1.82128,-4.12891 0.11371,1.09969 3.78456,-3.09304 3.78456,-4.32261 0,-1.62885 -1.75856,-0.8024 -2.36618,1.11201 -0.33963,1.07011 -0.80802,1.75515 -1.04086,1.52232 -0.7203,-0.72031 2.73056,-7.16731 3.56153,-6.65374 0.43066,0.26616 0.78301,0.062 0.78301,-0.45357 0,-1.92629 -2.02076,-2.09957 -2.51344,-0.21553 -0.28173,1.07733 -0.86352,1.74167 -1.29287,1.47632 -0.8885,-0.54912 -5.56869,5.95138 -5.56869,7.73456 0,1.21632 -4.38723,2.75676 -5.28746,1.85653 -0.44452,-0.44452 5.15056,-8.32952 13.76598,-19.40004 2.17758,-2.79811 2.6306,-4.45458 3.07671,-11.25 0.28772,-4.38281 0.20946,-10.81568 -0.17392,-14.29526 -0.38338,-3.47958 -0.37855,-6.645 0.0107,-7.03426 0.38927,-0.38927 0.46049,-3.10354 0.15828,-6.03171 -0.53387,-5.17273 -0.64374,-5.34623 -3.86843,-6.10885 -4.028,-0.95261 -5.16061,-3.09242 -1.63681,-3.09242 1.34822,0 2.69321,-0.63039 2.98887,-1.40087 0.29566,-0.77047 0.9719,-1.13242 1.50277,-0.80433 0.61565,0.3805 0.80645,-0.48523 0.52683,-2.39041 -0.24112,-1.64282 -0.054,-3.22448 0.41571,-3.51481 0.46976,-0.29032 -1.70996,-2.20322 -4.84381,-4.25088 -5.72407,-3.74011 -7.50677,-6.15166 -3.64035,-4.92451 1.13164,0.35917 4.70663,1.84161 7.9444,3.29429 3.33343,1.49561 6.12473,2.25636 6.43527,1.75389 0.94731,-1.53278 2.31277,-0.96669 2.31277,0.95882 0,1.20154 1.71863,2.94782 4.92187,5.00106 5.5021,3.52678 8.26585,6.27775 6.30692,6.27775 -0.65357,0 -4.32502,-1.5087 -8.1588,-3.35268 -8.47559,-4.07659 -11.13476,-3.52802 -9.06344,1.86975 0.65766,1.71384 4.62629,1.99909 5.61248,0.40341 0.48099,-0.77827 0.95427,-0.69935 1.69594,0.28283 0.56583,0.74929 3.88131,2.127 7.36773,3.06156 3.48642,0.93456 6.56991,2.07291 6.8522,2.52967 0.2844,0.46016 -3.48269,0.83046 -8.44832,0.83046 -4.92887,0 -8.98584,0.31641 -9.01549,0.70312 -1.01606,13.25342 -1.11453,12.38049 1.50901,13.37795 3.44435,1.30954 6.27801,-1.94872 5.63424,-6.4785 -0.73274,-5.1559 0.55605,-6.50565 5.77426,-6.04744 2.46408,0.21638 6.90018,0.85516 9.858,1.41953 4.18064,0.79769 5.69518,0.76277 6.80325,-0.15685 1.83322,-1.52143 15.69834,-0.82772 17.76677,0.88893 1.72559,1.43211 1.91313,4.8385 0.35232,6.39932 -0.84975,0.84974 -0.81303,1.65358 0.15842,3.46875 1.59314,2.97681 2.07299,2.9529 3.52595,-0.17568 0.78154,-1.68284 0.85963,-2.83618 0.23438,-3.46144 -0.51573,-0.51573 -0.93769,-2.07767 -0.93769,-3.47098 0,-1.99856 0.62319,-2.75053 2.95239,-3.5625 1.62383,-0.56607 4.35797,-1.02921 6.07589,-1.02921 4.00888,0 4.86439,-2.78595 2.96156,-9.64421 l -1.35593,-4.88704 -6.02008,-0.23054 c -7.82812,-0.29979 -12.11383,-1.04959 -12.11383,-2.11937 0,-0.99559 8.70053,-3.74384 11.85239,-3.74384 1.17539,0 2.98501,-0.91016 4.02138,-2.02257 1.67219,-1.79489 1.95144,-1.84766 2.48057,-0.46875 0.47163,1.22904 1.89801,1.5565 6.82409,1.56662 6.76042,0.0139 10.44657,0.69402 10.44657,1.92748 0,0.91548 -5.32481,2.54151 -11.01563,3.36384 -3.92137,0.56663 -4.94564,1.49113 -2.99067,2.69937 0.62822,0.38826 0.7669,2.4294 0.37706,5.54958 -0.46058,3.68639 -0.22847,5.68608 0.91716,7.90148 0.84359,1.63132 1.41219,3.56093 1.26356,4.28802 -0.29555,1.44586 -0.29838,1.44493 4.3503,1.44493 4.22771,0 6.12767,-2.06738 6.308,-6.86384 l 0.14729,-3.91741 0.55583,4.6875 0.55585,4.6875 5.625,1.06969 c 4.82292,0.91716 5.15712,1.10186 2.34375,1.29529 l -3.28125,0.2256 3.28125,0.65789 3.28125,0.65789 -4.86503,0.73818 c -2.67576,0.406 -5.03631,1.21457 -5.24567,1.79682 -0.20935,0.58225 -0.45043,6.03199 -0.53571,12.11053 -0.14915,10.62954 -0.0674,11.13112 2.1391,13.125 2.18876,1.97786 12.72606,20.20403 12.72606,22.01205 0,0.47531 0.84375,1.62779 1.875,2.56106 1.03125,0.93327 1.875,2.05334 1.875,2.48905 0,0.43571 -0.84375,0.7922 -1.875,0.7922 -1.156,0 -1.87976,-0.62913 -1.8874,-1.64063 -0.0192,-2.54333 -7.39089,-15.23437 -8.84899,-15.23437 -3.22238,0 -4.18722,1.0838 -3.62255,4.06917 0.30816,1.62915 1.00113,3.52158 1.53995,4.20541 0.69539,0.88253 0.6417,1.4522 -0.18502,1.96314 -0.85152,0.52627 -0.18052,2.20856 2.49556,6.25667 5.25914,7.95552 6.00428,9.53165 4.84492,10.24817 -1.45127,0.89694 -3.71147,-1.35695 -3.71147,-3.7011 0,-1.1228 -0.50625,-2.54771 -1.125,-3.16646 -1.58329,-1.58328 -4.5,-1.40099 -4.5,0.28125 0,1.99933 -1.5677,1.74514 -2.11368,-0.34271 -0.42463,-1.6238 -1.73011,-1.7578 -18.24135,-1.87228 l -17.78399,-0.12332 -1.08674,2.38515 c -0.5977,1.31182 -1.08674,2.95296 -1.08674,3.64697 0,1.50829 -2.53631,2.66777 -3.26314,1.49175 -0.63172,-1.02214 1.3968,-5.65431 2.47613,-5.65431 0.43285,0 0.78701,-0.68202 0.78701,-1.51559 0,-1.14491 -0.51591,-1.352 -2.10938,-0.84671 -1.16015,0.36788 -3.79687,0.95325 -5.85937,1.30082 l -3.75,0.63194 0.22731,4.43352 c 0.21024,4.10056 -0.41632,5.33825 -1.93407,3.82051 z m 28.60312,-11.22951 c 3.89848,-0.64457 5.02481,-2.35841 3.33168,-5.06954 -1.56493,-2.50585 -2.57179,-2.30782 -2.57179,0.50581 0,2.90571 -2.7283,3.187 -4.67774,0.48229 -1.3201,-1.83153 -1.38373,-1.82117 -3.95697,0.64414 -1.43841,1.37809 -2.61529,2.84856 -2.61529,3.26772 0,0.89469 5.5608,0.98459 10.49011,0.16958 z m 18.45445,-5.03248 0.12715,-5.625 -2.8171,0 c -2.77901,0 -2.81711,0.0676 -2.81711,5 0,5.58516 0.35262,6.25 3.31495,6.25 1.88471,0 2.07606,-0.491 2.19211,-5.625 z m -29.02703,-1.95062 c 1.75933,-2.59312 4.12051,-5.4398 5.24708,-6.32596 2.27408,-1.7888 2.51613,-6.10262 0.60424,-10.76883 -0.59474,-1.45153 -1.08135,-2.94403 -1.08135,-3.31666 0,-1.82561 -5.53216,-6.71704 -8.38215,-7.41132 -2.39306,-0.58298 -3.40048,-1.43863 -3.9021,-3.31426 -0.37191,-1.39062 -0.33096,-2.74177 0.091,-3.00255 0.42197,-0.26079 0.55663,-1.27943 0.29926,-2.26363 -0.36428,-1.39297 -1.4874,-1.86015 -5.06882,-2.10845 -2.53048,-0.17543 -4.6006,0.0107 -4.60028,0.41358 3.1e-4,0.4029 -0.7377,1.01211 -1.64005,1.35379 -4.80219,1.81842 -5.44892,5.8799 -0.9375,5.88764 12.9569,0.0222 22.16995,11.75165 19.46498,24.78144 -0.58225,2.80467 -1.8778,6.14079 -2.87899,7.41361 -1.93646,2.46181 -2.25776,3.43976 -1.11724,3.40055 0.38672,-0.0133 2.14257,-2.14582 3.9019,-4.73895 z m 18.81811,2.65374 c -0.0113,-1.64691 -0.20318,-1.81087 -0.87564,-0.74788 -0.47371,0.74882 -0.65329,1.69804 -0.39906,2.10937 0.81315,1.31572 1.28946,0.80698 1.2747,-1.36149 z m -11.53273,-3.6914 c -0.29927,-0.74788 -0.52142,-0.52573 -0.5664,0.56641 -0.0407,0.98828 0.18088,1.54199 0.4924,1.23046 0.31152,-0.31152 0.34482,-1.12011 0.074,-1.79687 z m 11.54709,-0.71984 c 0,-0.52988 -2.44856,-0.59421 -4.56791,-0.12 -0.19205,0.043 0.18033,0.71613 0.8275,1.49593 0.895,1.07841 1.48354,1.16314 2.45855,0.35396 0.70502,-0.58512 1.28186,-1.36357 1.28186,-1.72989 z m 3.75,0.89562 c 0,-1.03125 -0.38238,-1.875 -0.84973,-1.875 -0.46736,0 -0.62909,0.84375 -0.35941,1.875 0.26968,1.03125 0.65206,1.875 0.84973,1.875 0.19767,0 0.35941,-0.84375 0.35941,-1.875 z m -4.01602,-10.07813 c -0.2148,-1.41796 -0.39055,-0.25781 -0.39055,2.57813 0,2.83594 0.17575,3.99609 0.39055,2.57812 0.21481,-1.41796 0.21481,-3.73828 0,-5.15625 z m -2.57971,3.28125 -0.0332,-3.04687 -1.29708,2.34375 c -0.71338,1.28906 -1.57735,2.20312 -1.9199,2.03125 -0.34256,-0.17188 -0.90409,10e-4 -1.24783,0.38468 -0.34378,0.38345 -0.0977,0.39371 0.54684,0.0228 0.64453,-0.37091 1.17188,-0.22761 1.17188,0.31844 0,0.54606 0.63281,0.99283 1.40625,0.99283 0.96835,0 1.39591,-0.94878 1.37302,-3.04688 z m 11.28323,2.25468 c 0,-0.43571 -0.79163,-1.50861 -1.75916,-2.38422 -1.61096,-1.45789 -1.80843,-1.46367 -2.34375,-0.0686 -1.00307,2.61394 -0.66094,3.24505 1.75916,3.24505 1.28906,0 2.34375,-0.35649 2.34375,-0.7922 z m -5.91282,-5.51808 c -0.2377,-0.91216 -0.44781,-0.39285 -0.46692,1.15403 -0.0191,1.54687 0.17537,2.29318 0.43218,1.65847 0.2568,-0.63472 0.27243,-1.90035 0.0348,-2.8125 z m 9.46299,-3.58476 c 0.0509,-5.66544 -0.73188,-5.77944 -3.79983,-0.5534 -1.62147,2.76206 -1.61225,2.85129 0.44298,4.29083 1.15438,0.80856 2.37139,1.47011 2.70446,1.47011 0.33308,0 0.62666,-2.34339 0.65239,-5.20754 z m 7.57999,0.0587 c -3.28473,-5.5672 -4.13433,-5.56894 -3.78226,-0.008 l 0.31665,5.00168 2.65912,-0.92698 2.65912,-0.92697 -1.85263,-3.13999 z m -23.32359,-2.04012 c 0.003,-1.11798 0.262,-2.70001 0.57498,-3.51562 0.3205,-0.83523 0.0865,-1.48293 -0.53571,-1.48293 -0.60763,0 -1.73759,-0.63281 -2.51102,-1.40625 -1.91554,-1.91554 -2.88721,-1.76901 -4.17054,0.62891 -0.88354,1.65091 -0.80763,2.24103 0.40209,3.1256 1.1042,0.80741 1.34526,1.99015 0.92874,4.55689 l -0.56253,3.46645 2.93403,-1.67018 c 1.86616,-1.06229 2.93619,-2.41 2.93996,-3.70287 z m 16.58412,-17.00654 c -0.26549,-12.8274 -0.47979,-13.26557 -6.50007,-13.29015 -2.41484,-0.01 -3.51562,0.40149 -3.51562,1.31377 0,0.73046 0.50116,1.49517 1.11368,1.69935 0.78984,0.26328 0.65352,1.02821 -0.46875,2.63047 -0.87976,1.25604 -1.58243,4.02108 -1.58243,6.22692 0,3.79223 0.14509,3.99489 3.28125,4.58323 2.83148,0.53119 3.28125,0.97903 3.28125,3.26714 0,2.3853 -0.3517,2.68079 -3.50216,2.94254 l -3.50214,0.29097 0.30657,4.17804 c 0.18042,2.45876 0.92569,4.63075 1.81108,5.27817 1.25369,0.91671 2.17235,0.37646 5.51033,-3.24054 l 4.00582,-4.34067 -0.23881,-11.53924 z m -80.32819,2.44549 c 0,-1.51445 -0.27723,-1.78527 -1.04332,-1.01919 -0.57381,0.57383 -0.75986,1.50195 -0.41342,2.0625 0.96974,1.56908 1.45674,1.22029 1.45674,-1.04331 z m 0.59785,-7.34953 c -0.14936,-5.69622 -2.47285,-5.66143 -2.47285,0.037 0,3.53451 0.30367,4.51212 1.28467,4.13568 0.81142,-0.31137 1.24913,-1.84852 1.18818,-4.17271 z m 0.33965,-9.33797 c 0,-2.0625 -0.42188,-3.75 -0.9375,-3.75 -0.51563,0 -0.9375,-0.86865 -0.9375,-1.93033 0,-1.14798 0.41191,-1.67575 1.01634,-1.30219 0.64388,0.39794 0.90156,-0.15612 0.70313,-1.51187 -0.17228,-1.177 -0.84057,-2.31367 -1.4851,-2.52593 -0.87268,-0.2874 -1.17187,1.54886 -1.17187,7.1922 0,6.11111 0.27223,7.57812 1.40625,7.57812 1.01562,0 1.40625,-1.04167 1.40625,-3.75 z m 83.18359,-1.50391 c -0.31152,-0.31152 -1.12012,-0.34483 -1.79687,-0.074 -0.74788,0.29927 -0.52573,0.52142 0.56641,0.5664 0.98827,0.0407 1.54199,-0.18087 1.23046,-0.49239 z m -253.3316,57.51953 c -0.2209,-0.64453 -1.26524,-6.95913 -2.32073,-14.03244 -1.05549,-7.07331 -2.38416,-13.88134 -2.95262,-15.12894 -0.78195,-1.71623 -3.48675,-3.22972 -11.11212,-6.21787 -5.54322,-2.17222 -10.85319,-3.80031 -11.79993,-3.61799 -0.94673,0.18232 -2.50183,1.66789 -3.45576,3.30126 -1.71735,2.94051 -1.71092,3.02566 0.65237,8.64057 2.53134,6.0142 2.98389,9.4427 1.44901,10.97758 -0.62538,0.62538 -0.19328,3.49862 1.2971,8.625 l 2.2349,7.68721 -3.45305,0 -3.45303,0 -2.04873,-6.9636 c -1.44231,-4.9024 -2.57805,-7.13161 -3.83699,-7.53118 -2.62629,-0.83355 -5.72448,-9.83318 -5.73468,-16.65812 -0.008,-5.23078 -2.64526,-11.0849 -6.72758,-14.9327 -5.18717,-4.8892 -16.52474,-8.56688 -26.74652,-8.67605 -7.65548,-0.0818 -7.70363,-0.0977 -11.51176,-3.81473 -5.34298,-5.21511 -6.41469,-9.25554 -3.93933,-14.85149 2.5299,-5.71927 6.47884,-8.13061 13.29496,-8.11832 7.60169,0.0137 8.91957,0.62643 13.1548,6.11607 4.02252,5.21394 13.5708,11.32944 30.39456,19.46718 4.10058,1.98348 8.95214,4.7678 10.78125,6.18738 1.8291,1.41958 5.85689,3.99046 8.95064,5.71306 7.81009,4.34866 12.34467,8.04222 12.93712,10.5377 0.27663,1.1652 1.12851,3.80605 1.89306,5.86855 0.76456,2.0625 1.83651,7.33594 2.38211,11.71875 0.54561,4.38281 1.27761,9.97266 1.62667,12.42187 0.44632,3.13172 0.30991,4.45313 -0.45971,4.45313 -0.60189,0 -1.2751,-0.52734 -1.49601,-1.17188 z m -474.61762,-12.574 c -1.77491,-0.71619 -1.40212,-3.12911 0.48344,-3.12911 1.4901,0 1.59683,-0.72516 1.0693,-7.26563 -0.82707,-10.25442 -1.47994,-12.1875 -4.11619,-12.1875 -1.6095,0 -2.3076,0.64319 -2.65167,2.44311 -0.43957,2.29944 -0.38955,2.33715 0.85061,0.64113 1.71166,-2.34083 1.665,-1.56645 -0.17027,2.82597 -1.03818,2.48471 -1.29817,4.82632 -0.86017,7.74714 l 0.62774,4.18609 -3.00702,-0.60141 c -1.65386,-0.33077 -3.38588,-0.6014 -3.84894,-0.6014 -0.46306,0 -0.14245,-1.06754 0.71247,-2.37231 1.25024,-1.90811 1.42832,-3.60501 0.91008,-8.67188 -0.59598,-5.82692 -1.70107,-8.7385 -2.87219,-7.56737 -0.26521,0.2652 -0.75558,3.1902 -1.08972,6.5 -0.7865,7.79043 -1.74043,10.35766 -3.58559,9.6496 -1.58531,-0.60834 -1.98814,-3.16304 -0.49875,-3.16304 1.01236,0 1.08706,-7.17439 0.12157,-11.67644 -0.51474,-2.40023 -1.28243,-2.96883 -5.74845,-4.25766 -4.03358,-1.16403 -5.21951,-1.93768 -5.45395,-3.55794 -0.19498,-1.34757 0.19079,-2.07046 1.10491,-2.07046 2.12823,0 4.35092,-2.6683 4.35092,-5.22321 0,-1.8772 0.4681,-2.27679 2.66719,-2.27679 2.85794,0 5.15726,-1.99683 6.1853,-5.37158 0.35022,-1.14968 0.92747,-2.04894 1.28276,-1.99836 0.3553,0.0506 2.18959,0.042 4.0762,-0.019 3.3692,-0.10904 3.57103,-0.34031 11.34584,-13.00164 l 7.91561,-12.89063 7.40418,0.31828 c 4.07229,0.17505 7.76926,0.66671 8.21549,1.09257 0.44803,0.42758 -0.37497,2.32961 -1.83795,4.24768 l -2.64928,3.47338 2.01884,1.63476 c 2.54461,2.0605 11.20264,4.21741 23.00729,5.73163 5.03949,0.64643 9.60105,1.70348 10.13678,2.34901 1.25524,1.51247 -4.48024,8.04457 -10.34242,11.7789 l -4.16792,2.65504 8.15229,0 8.1523,0 0,4.70267 c 0,4.45934 -0.17129,4.78435 -3.31046,6.28132 -3.41845,1.63014 -3.8319,2.49925 -4.58636,9.64101 -0.67875,6.42501 -1.50462,8.4375 -3.46252,8.4375 -0.97111,0 -1.76566,-0.63281 -1.76566,-1.40625 0,-0.77344 0.42187,-1.40625 0.9375,-1.40625 0.52954,0 0.9375,-2.67117 0.9375,-6.13851 0,-5.39203 -0.29372,-6.41073 -2.41532,-8.37696 -2.1986,-2.03759 -3.01875,-2.19795 -9.14063,-1.78721 -12.6809,0.85082 -14.87259,1.31414 -15.37913,3.25117 -0.28948,1.10699 -1.28837,1.80151 -2.59103,1.80151 -3.1692,0 -8.71788,2.57417 -9.76464,4.53007 -0.50649,0.94637 -1.09937,4.84941 -1.31754,8.67342 -0.21815,3.82402 -0.66272,7.69104 -0.98793,8.59338 -0.3252,0.90235 -0.78898,2.27344 -1.03062,3.04688 -0.43937,1.40643 -1.81,1.67461 -4.01379,0.78536 z m -8.00882,-14.60255 c -0.22424,-1.16617 -0.41623,-0.43281 -0.42664,1.62969 -0.0104,2.0625 0.17308,3.01664 0.40772,2.12031 0.23465,-0.89634 0.24316,-2.58384 0.0189,-3.75 z m -4.41305,-14.68863 c -1.65858,-0.93476 -13.3024,-3.03554 -13.84079,-2.49715 -0.20372,0.20373 2.08883,0.85587 5.09456,1.4492 3.00573,0.59333 5.88685,1.22969 6.40248,1.41414 0.51562,0.18444 1.57031,0.35583 2.34375,0.38086 1.24999,0.0404 1.24999,-0.0426 0,-0.74705 z m 32.8368,-12.0375 c -3.33819,-0.18607 -6.39032,-0.84306 -6.78252,-1.45999 -0.55011,-0.86535 -0.71635,-0.8662 -0.72743,-0.004 -0.008,0.63072 -1.75089,1.27438 -3.99873,1.47684 -2.19141,0.19737 0.86719,0.35128 6.79688,0.34201 5.92968,-0.009 8.05,-0.16908 4.7118,-0.35515 z m -7.82139,-5.10121 c -0.29927,-0.74788 -0.52142,-0.52573 -0.5664,0.56641 -0.0407,0.98828 0.18086,1.54199 0.49239,1.23046 0.31153,-0.31152 0.34483,-1.12011 0.074,-1.79687 z m -0.95703,-4.7461 c -0.26007,-0.64453 -0.47286,-0.11718 -0.47286,1.17188 0,1.28906 0.21279,1.81641 0.47286,1.17187 0.26007,-0.64453 0.26007,-1.69921 0,-2.34375 z m -1.1566,-4.85491 c -0.34483,-1.37391 -0.80777,-2.31723 -1.02875,-2.09624 -0.22098,0.22098 -0.11965,1.5259 0.22518,2.89982 0.34483,1.37391 0.80777,2.31723 1.02875,2.09624 0.22099,-0.22098 0.11965,-1.5259 -0.22518,-2.89982 z m 244.47322,15.21429 c -0.61875,-0.61875 -1.125,-1.66871 -1.125,-2.33325 0,-1.5147 0.46925,-1.48751 -27.65625,-1.60232 -20.70034,-0.0845 -23.76596,0.0952 -26.25,1.53917 -3.45599,2.0089 -5.05046,2.07544 -5.75472,0.24015 -0.45883,-1.19566 -3.89134,-1.40625 -22.92148,-1.40625 l -22.38183,0 -0.58825,-2.34375 c -0.32353,-1.28906 -0.32353,-3.39844 0,-4.6875 0.56914,-2.26762 0.8444,-2.34375 8.47393,-2.34375 7.46399,0 7.90171,-0.1128 8.18527,-2.10938 0.462,-3.25303 5.57976,-3.4394 8.05447,-0.29332 1.03288,1.31309 2.85558,2.49634 4.05047,2.62944 1.74793,0.19471 2.1808,-0.21606 2.21483,-2.10174 0.0312,-1.73157 0.61818,-2.42526 2.24704,-2.65582 4.11865,-0.58299 6.70152,0.62815 6.70152,3.14243 0,1.27924 0.42187,2.32589 0.9375,2.32589 0.51562,0 0.9375,-0.69177 0.9375,-1.53727 0,-2.60824 3.03133,-4.02672 8.67187,-4.05791 4.22875,-0.0234 5.39063,0.27962 5.39063,1.40585 0,0.78962 0.60618,1.66829 1.34705,1.95259 0.74088,0.2843 1.11762,1.11481 0.8372,1.84558 -0.71262,1.85706 0.63906,1.65962 2.1357,-0.31197 1.78701,-2.35408 1.58619,-3.26245 -0.56995,-2.57812 -1.33061,0.42232 -1.875,0.16847 -1.875,-0.87432 0,-0.87347 0.8555,-1.50417 2.10937,-1.5551 3.17432,-0.12891 17.28675,0.0785 33.04688,0.4856 7.73437,0.19981 23.34375,0.44594 34.6875,0.54695 20.25348,0.18036 23.90625,0.66865 23.90625,3.19569 0,1.69976 38.94019,3.22973 40.57569,1.59424 1.3824,-1.3824 8.68637,-1.34568 11.28281,0.0567 1.12626,0.60832 3.94049,1.13567 6.25386,1.17188 3.38349,0.053 4.27435,0.42042 4.55507,1.87887 0.79647,4.13811 -0.23164,4.22452 -52.26735,4.39281 -27.11848,0.0877 -50.47449,0.15851 -51.90224,0.15733 -2.50464,-0.002 -2.52936,0.0445 -0.70313,1.32363 1.04103,0.72917 1.89279,1.93465 1.89279,2.67885 0,1.6392 -2.93988,1.78822 -4.5,0.22809 z m -6.02735,-11.82422 c 0.20729,-0.62187 -0.49101,-1.11328 -1.58203,-1.11328 -1.94749,0 -2.53118,0.98444 -1.30859,2.20703 0.86856,0.86857 2.43396,0.27626 2.89062,-1.09375 z m 8.0241,0.37056 c 0.64729,-1.68682 -1.04665,-2.29333 -4.05925,-1.4534 l -2.34375,0.65344 2.34375,1.00489 c 3.15286,1.35179 3.46799,1.33588 4.05925,-0.20493 z m 6.60481,-0.35673 c 0.25422,-0.41133 0.0858,-1.35703 -0.37438,-2.10154 -0.63238,-1.0232 -1.10082,-1.08943 -1.91896,-0.27129 -0.59529,0.59529 -0.7989,1.54098 -0.45246,2.10153 0.74031,1.19784 2.0907,1.33127 2.7458,0.2713 z m 6.73017,-1.98292 c -0.66844,-1.08156 -4.26923,-1.43531 -4.26923,-0.41942 0,0.32988 0.73828,1.14523 1.64062,1.81189 1.7616,1.30149 3.66908,0.29103 2.62861,-1.39247 z m 6.04327,1.32456 c 0,-0.77344 -0.63281,-1.40625 -1.40625,-1.40625 -2.43981,0 -1.64915,1.84764 1.17187,2.73849 0.12891,0.0407 0.23438,-0.5588 0.23438,-1.33224 z m -48.18359,-2.08984 c -0.95299,-0.95299 -1.7393,0.48177 -0.9574,1.74692 0.59066,0.9557 0.81148,0.95644 1.12903,0.004 0.21713,-0.65136 0.13989,-1.43918 -0.17163,-1.7507 z m 9.74609,1.59167 c 0,-1.12235 -2.64433,-2.32624 -3.41556,-1.55502 -0.82098,0.82098 0.57155,2.52194 2.06464,2.52194 0.74301,0 1.35092,-0.43512 1.35092,-0.96692 z m 44.0625,-0.43933 c 0,-0.77344 -0.60791,-1.40625 -1.35092,-1.40625 -1.56624,0 -2.62351,1.33807 -1.7486,2.21299 1.12046,1.12046 3.09952,0.60535 3.09952,-0.80674 z m 4.03389,0.0128 c 0.10167,-0.50855 -0.55342,-1.06683 -1.45577,-1.24061 -1.02618,-0.19762 -1.64062,0.26219 -1.64062,1.22778 0,1.63105 2.77059,1.64254 3.09639,0.0128 z m 7.21611,0.55622 c 0,-1.05379 -2.43855,-2.03675 -3.18959,-1.28571 -1.12854,1.12853 -0.51278,2.12291 1.31459,2.12291 1.03125,0 1.875,-0.37674 1.875,-0.8372 z m 4.6875,0.42378 c 0,-0.98951 -1.79917,-1.40523 -2.3343,-0.53937 -0.32387,0.52403 0.0688,0.95279 0.87272,0.95279 0.80387,0 1.46158,-0.18604 1.46158,-0.41342 z M 388.95562,834.522 c -0.31868,-0.51563 -1.21222,-0.9375 -1.98566,-0.9375 -0.77343,0 -1.14552,0.42187 -0.82684,0.9375 0.31867,0.51562 1.21221,0.9375 1.98565,0.9375 0.77344,0 1.14552,-0.42188 0.82685,-0.9375 z m 6.09375,0 c 0,-0.51563 -0.42188,-0.9375 -0.9375,-0.9375 -0.51563,0 -0.9375,0.42187 -0.9375,0.9375 0,0.51562 0.42187,0.9375 0.9375,0.9375 0.51562,0 0.9375,-0.42188 0.9375,-0.9375 z m -253.56699,1.875 c -2.49005,-2.6336 -3.60776,-9.43133 -1.65762,-10.08138 0.63916,-0.21305 1.16211,0.0697 1.16211,0.62826 0,0.55859 0.4503,1.01562 1.00067,1.01562 0.55037,0 0.76738,-0.73828 0.48223,-1.64063 -0.39746,-1.25774 0.45447,-2.04166 3.65044,-3.35906 2.29288,-0.94514 4.6023,-1.45058 5.13204,-1.12318 0.59155,0.3656 0.72543,-0.0242 0.347,-1.01038 -0.49282,-1.28428 -0.21564,-1.5009 1.38493,-1.08234 1.12636,0.29455 1.91264,0.10429 1.79876,-0.43525 -0.11127,-0.52719 0.32502,-1.15189 0.96955,-1.38822 0.64453,-0.23633 1.17188,0.0522 1.17188,0.64126 0,0.58903 0.44585,0.7954 0.99078,0.45862 1.45973,-0.90216 5.57172,0.35103 5.57172,1.69807 0,0.63836 -1.92459,3.47798 -4.27685,6.31026 -2.35226,2.83228 -5.02783,6.57856 -5.94571,8.32507 -1.47433,2.80532 -2.12914,3.18781 -5.6174,3.28125 -3.07939,0.0825 -4.4363,-0.41012 -6.16453,-2.23797 z m 5.5224,-8.39063 c 4.92571,-3.04426 4.09179,-3.37627 -1.21947,-0.48552 -3.71672,2.02289 -4.48068,2.85755 -4.0662,4.44251 l 0.51036,1.95163 0.70912,-1.91692 c 0.39001,-1.0543 2.21979,-2.85057 4.06619,-3.9917 z m 741.31351,6.87102 c -1.15758,-2.38266 -1.90283,-4.53398 -1.65609,-4.78072 0.24673,-0.24673 1.53876,1.70272 2.87118,4.33211 1.33242,2.6294 2.07766,4.78072 1.65609,4.78072 -0.42156,0 -1.7136,-1.94945 -2.87118,-4.33211 z"
       id="path4838"
       inkscape:connector-curvature="0" />
    <text
       xml:space="preserve"
       style="font-style:normal;font-variant:normal;font-weight:normal;font-stretch:normal;font-size:50px;line-height:125%;font-family:'Cracked Johnnie';-inkscape-font-specification:'Cracked Johnnie';text-align:center;letter-spacing:0px;word-spacing:0px;text-anchor:middle;fill:#000000;fill-opacity:1;stroke:none;stroke-width:1px;stroke-linecap:butt;stroke-linejoin:miter;stroke-opacity:1"
       x="470.44644"
       y="905.2193"
       id="text4873"
       sodipodi:linespacing="125%"><tspan
         sodipodi:role="line"
         id="tspan4875"
         x="470.44644"
         y="905.2193"><tspan
   style="font-size:50px;fill:#008000"
   id="tspan4883">B</tspan>ig <tspan
   style="font-size:50px;fill:#008000"
   id="tspan4885">B</tspan>and</tspan><tspan
         sodipodi:role="line"
         x="470.44644"
         y="967.7193"
         id="tspan4877"><tspan
   style="font-size:50px;fill:#008000"
   id="tspan4881">G</tspan>ymnasium <tspan
   style="font-size:50px;fill:#008000"
   id="tspan4879">S</tspan>yke</tspan></text>
  </g>
</svg>
